<svg xmlns="http://www.w3.org/2000/svg" width="48" height="48" fill="none" viewBox="0 0 48 48">
    <path fill="url(#paint0_linear)" fill-rule="evenodd" d="M26.63 1.167c-1.09 1.19-2.2 4.13-2.34 6.57-.57 10.26 4.04 11.39 6.26 10.8 2.22-.58 4.47-4.96 3.06-12.1-1.5-7.55-5.22-7.18-6.98-5.27zm11.25 17.08c.47-2.4 1.98-5.16 3.23-6.18 2-1.65 5.75-1.5 6.18 6.18.41 7.27-2.42 11.29-4.71 11.56-2.28.27-6.68-1.48-4.7-11.56zm-22.32 10.2s-1.08 5.11-8.6 9.14-5.38 8.87 0 7.8c.806-.162 1.612-.341 2.41-.518 4.522-1.004 8.752-1.942 11.03.667 2.68 3.07 6.72 2.84 11.29 0 4.257-2.645 5.945-1.898 7.684-1.128l.386.169c1.88.81 7.8-.54 5.92-4.84-.86-1.97-2.569-2.812-4.502-3.767-2.29-1.13-4.896-2.417-6.788-5.913-.243-.448-.474-.878-.695-1.29l-.002-.002-.002-.004c-2.966-5.517-4.217-7.845-9.621-7.845-5.81 0-8.51 7.53-8.51 7.53zm-4.07-21.25c.42-2.4 1.87-5.2 3.1-6.25 1.97-1.69 5.71-1.62 6.31 6.05.56 7.26-2.19 11.34-4.47 11.66-2.28.32-6.72-1.34-4.94-11.46zm-4.64 7.84c1.23 1.05 2.68 3.85 3.1 6.25 1.77 10.12-2.66 11.78-4.94 11.46-2.28-.31-5.03-4.4-4.47-11.66.6-7.67 4.34-7.74 6.31-6.05z" clip-rule="evenodd"/>
    <defs>
        <linearGradient id="paint0_linear" x1=".586" x2="49.477" y1="13.001" y2="40.545" gradientUnits="userSpaceOnUse">
            <stop stop-color="#F7D637"/>
            <stop offset="1" stop-color="#2FCF57"/>
        </linearGradient>
    </defs>
</svg>
