<svg xmlns="http://www.w3.org/2000/svg" width="60" height="63" fill="none" viewBox="0 0 60 63">
    <path fill="url(#paint0_linear)" d="M58.97 18.45C41.77 21.57 30.77 4.8 28.18.34c-.27-.46-.92-.45-1.18.01-1.27 2.21-4.55 7.47-9.37 12.13-5.24 5.07-13.48 4.53-16.65 4.09-.61-.08-1.11.49-.95 1.09C6.04 39.73 16.21 50.08 19 52.13c2.84 2.1 4.79 4.19 6.59 7.79 1.8 3.59 5.69 2.69 5.99 0 .3-2.69 7.79-9.13 16.17-16.62C56.12 35.82 60 18.26 58.97 18.45zM25.54 47.29c0 2.12-1.21 2.12-7.89 0C10.97 45.16 1.66 18 1.66 18 12.54 22.9 26.75 5.73 26.75 5.73s-1.21 39.43-1.21 41.56zm6.63 2.9c-2.4 0-3.29-2.84-3.29-2.84s-.81-42.71 0-41.62c11.23 15.12 27.55 14.53 27.55 14.53-6.29 26.04-21.86 29.93-24.26 29.93z"/>
    <defs>
        <linearGradient id="paint0_linear" x1="5.671" x2="58.778" y1="13.347" y2="44.461" gradientUnits="userSpaceOnUse">
            <stop stop-color="#F7D637"/>
            <stop offset="1" stop-color="#2FCF57"/>
        </linearGradient>
    </defs>
</svg>
