<svg xmlns="http://www.w3.org/2000/svg" width="53" height="66" fill="none" viewBox="0 0 53 66">
    <path fill="url(#paint0_linear)" d="M16.24 39.388c.62.62 5.91 6.38 6.53-2.18.62-8.56-.62-23.64.78-28.93 1.4-5.29 1.87-3.89 2.33-6.07.46-2.18 1.56-3.11 1.71-1.09.16 2.02-.31 3.42 0 4.98.31 1.56-2.02 39.35 3.89 37.95 5.91-1.4 10.42-9.8 13.07-15.86 2.65-6.06 5.6-4.67 6.84-7.31 0 0 2.33-1.24.62 2.33-1.71 3.58-1.09 2.64-4.67 8.24s-19.91 26.29-19.91 30.02v3.73H23.7s-2.18-9.49-8.4-18.98c-6.22-9.49-14-21-13.22-26.13.78-5.13-1.87-5.75-.93-6.22.93-.47 4.82 5.91 7 11.04 2.18 5.13 8.09 14.48 8.09 14.48z"/>
    <defs>
        <linearGradient id="paint0_linear" x1=".976" x2="53.098" y1="14.979" y2="46.629" gradientUnits="userSpaceOnUse">
            <stop stop-color="#F7D637"/>
            <stop offset="1" stop-color="#2FCF57"/>
        </linearGradient>
    </defs>
</svg>
