<svg xmlns="http://www.w3.org/2000/svg" width="94" height="90" fill="none" viewBox="0 0 94 90">
    <path fill="url(#paint0_linear)" fill-rule="evenodd" d="M20.31 10.01c.14.83.29 1.67.45 2.5.41 2.18.52 3.59.48 4.52-.03.89-1.19 1.23-1.67.47C16.35 12.36 13.66.43 17.22.45c1.531.01 2.597 6.537 3.056 9.354l.034.206zm10.24 0c-.14.83-.29 1.67-.45 2.5-.41 2.18-.52 3.59-.48 4.52.03.89 1.19 1.23 1.67.47C34.51 12.36 37.2.43 33.64.45c-1.531.01-2.596 6.536-3.056 9.354l-.034.206zm7.77 19.07c-.22-.48-.11-1.04.18-1.48.7-1.06 2.35-3.35 3.74-3.7 1.81-.45 4.84 1.36 2.72 4.23-1.85 2.52-5.79 2.84-6.64.95zM7.78 27.6c.29.44.4 1 .18 1.48-.85 1.89-4.79 1.57-6.64-.95-2.12-2.87.91-4.68 2.72-4.23 1.39.35 3.04 2.64 3.74 3.7zm8.76 7.8s.36-4.99 4.72-3.02c2.134.964 4.018-.338 5.723-1.515 1.779-1.228 3.361-2.321 4.827-.565 2.87 3.44.45 9.64-5.9 10.7-6.35 1.05-9.67-2.43-9.37-5.6zm13.91 15.57c-1.82-1.66-.84-2.87-.84-2.87 4.437-.907 4.46-.761 4.916 2.084l.004.026c.46 2.88-2.27 2.42-4.08.76zM17.89 48.1s.98 1.21-.84 2.87c-1.81 1.66-4.54 2.12-4.08-.76l.004-.023c.456-2.858.478-2.995 4.916-2.087zm45.57-.92c.14.83.29 1.67.45 2.5.41 2.18.52 3.6.48 4.52-.03.89-1.19 1.23-1.67.47-3.22-5.14-5.91-17.07-2.35-17.05 1.531.01 2.597 6.536 3.056 9.354l.034.206zm9.79 2.5c.16-.83.31-1.67.45-2.5l.034-.206c.46-2.818 1.525-9.344 3.056-9.354 3.56-.02.87 11.91-2.35 17.05-.48.76-1.64.42-1.67-.47-.04-.92.07-2.34.48-4.52zm-17.74 15.1c.29.44.4 1 .18 1.48-.85 1.88-4.79 1.57-6.64-.95-2.12-2.87.91-4.68 2.72-4.23 1.39.35 3.04 2.64 3.74 3.7zm30.54 1.48c-.22-.48-.11-1.04.18-1.48.7-1.06 2.35-3.35 3.74-3.7 1.81-.45 4.84 1.36 2.72 4.23-1.86 2.52-5.79 2.83-6.64.95zm-13.3 3.29c4.36-1.97 4.72 3.02 4.72 3.02.3 3.17-3.02 6.65-9.37 5.6-6.35-1.06-8.77-7.26-5.9-10.7 1.465-1.757 3.048-.663 4.827.565 1.705 1.177 3.59 2.48 5.723 1.515zM64.4 85.27s.98 1.21-.84 2.87c-1.81 1.66-4.54 2.12-4.08-.76l.001-.007c.449-2.863.472-3.012 4.919-2.103zm12.56 2.87c-1.82-1.66-.84-2.87-.84-2.87 4.447-.91 4.47-.76 4.919 2.103l.001.007c.46 2.88-2.27 2.42-4.08.76z" clip-rule="evenodd"/>
    <defs>
        <linearGradient id="paint0_linear" x1="8.5" x2="80.915" y1="15" y2="87.12" gradientUnits="userSpaceOnUse">
            <stop stop-color="#F7D637"/>
            <stop offset="1" stop-color="#2FCF57"/>
        </linearGradient>
    </defs>
</svg>
