<svg xmlns="http://www.w3.org/2000/svg" width="94" height="90" fill="none" viewBox="0 0 94 90">
    <path fill="url(#paint0_linear)" fill-rule="evenodd" d="M10.34 34.83c-.71-.95-8.31-27.31-8.31-27.31-3.196-2.775-1.991 6.52-.524 17.829.166 1.286.337 2.598.504 3.921C3.67 42.21 9.85 61.2 25.52 57.64c12.3-2.8 15.91-42.04 15.44-46.31-.47-4.27-2.37-1.42-2.37-1.42s-6.41 27.07-11.16 27.26c-4.03.161-4.634-14.274-5.017-23.442-.069-1.639-.13-3.11-.203-4.298-.48-7.84-1.67-8.55-3.09-8.55-.934 0-1.462 11.108-1.916 20.666-.235 4.965-.451 9.512-.694 11.864-.71 6.88-5.46 2.37-6.17 1.42zm72.89 31.58c.71-.95 8.31-27.31 8.31-27.31 3.212-2.772 1.996 6.562.518 17.902-.165 1.262-.333 2.55-.498 3.848-1.66 12.94-7.84 31.93-23.51 28.37-12.3-2.8-15.91-42.04-15.44-46.31.47-4.27 2.37-1.42 2.37-1.42s6.41 27.07 11.16 27.26c4.043.162 4.645-14.37 5.024-23.533.067-1.602.126-3.04.196-4.207.48-7.84 1.67-8.55 3.09-8.55.935 0 1.462 11.108 1.916 20.666.236 4.964.451 9.509.694 11.864.71 6.88 5.46 2.37 6.17 1.42z" clip-rule="evenodd"/>
    <defs>
        <linearGradient id="paint0_linear" x1="11.5" x2="94" y1="13.5" y2="79.5" gradientUnits="userSpaceOnUse">
            <stop stop-color="#F7D637"/>
            <stop offset="1" stop-color="#2FCF57"/>
        </linearGradient>
    </defs>
</svg>
